<svg width="400" height="51" viewBox="0 0 400 51" fill="none" xmlns="http://www.w3.org/2000/svg">
<path d="M25 46.4201C36.83 46.4201 46.42 36.83 46.42 25.0001C46.42 13.1701 36.83 3.58008 25 3.58008C13.1701 3.58008 3.58002 13.1701 3.58002 25.0001C3.58002 36.83 13.1701 46.4201 25 46.4201Z" fill="#6F2CFF"/>
<path d="M20.54 23.5902C22.2245 23.5902 23.59 22.2247 23.59 20.5402C23.59 18.8558 22.2245 17.4902 20.54 17.4902C18.8555 17.4902 17.49 18.8558 17.49 20.5402C17.49 22.2247 18.8555 23.5902 20.54 23.5902Z" fill="#D15187"/>
<path d="M29.46 23.5902C31.1444 23.5902 32.51 22.2247 32.51 20.5402C32.51 18.8558 31.1444 17.4902 29.46 17.4902C27.7755 17.4902 26.41 18.8558 26.41 20.5402C26.41 22.2247 27.7755 23.5902 29.46 23.5902Z" fill="#D15187"/>
<path d="M20.54 32.5102C22.2245 32.5102 23.59 31.1446 23.59 29.4602C23.59 27.7757 22.2245 26.4102 20.54 26.4102C18.8555 26.4102 17.49 27.7757 17.49 29.4602C17.49 31.1446 18.8555 32.5102 20.54 32.5102Z" fill="#D15187"/>
<path d="M29.46 32.5102C31.1444 32.5102 32.51 31.1446 32.51 29.4602C32.51 27.7757 31.1444 26.4102 29.46 26.4102C27.7755 26.4102 26.41 27.7757 26.41 29.4602C26.41 31.1446 27.7755 32.5102 29.46 32.5102Z" fill="#D15187"/>
<path d="M78.8418 25.7705H73.7793V31H71.1426V18.2031H79.4746V20.3389H73.7793V23.6436H78.8418V25.7705ZM86.0488 31C85.9316 30.7715 85.8467 30.4873 85.7939 30.1475C85.1787 30.833 84.3789 31.1758 83.3945 31.1758C82.4629 31.1758 81.6895 30.9062 81.0742 30.3672C80.4648 29.8281 80.1602 29.1484 80.1602 28.3281C80.1602 27.3203 80.5322 26.5469 81.2764 26.0078C82.0264 25.4688 83.1074 25.1963 84.5195 25.1904H85.6885V24.6455C85.6885 24.2061 85.5742 23.8545 85.3457 23.5908C85.123 23.3271 84.7686 23.1953 84.2822 23.1953C83.8545 23.1953 83.5176 23.2979 83.2715 23.5029C83.0312 23.708 82.9111 23.9893 82.9111 24.3467H80.3711C80.3711 23.7959 80.541 23.2861 80.8809 22.8174C81.2207 22.3486 81.7012 21.9824 82.3223 21.7188C82.9434 21.4492 83.6406 21.3145 84.4141 21.3145C85.5859 21.3145 86.5146 21.6104 87.2002 22.2021C87.8916 22.7881 88.2373 23.6143 88.2373 24.6807V28.8027C88.2432 29.7051 88.3691 30.3877 88.6152 30.8506V31H86.0488ZM83.9482 29.2334C84.3232 29.2334 84.6689 29.1514 84.9854 28.9873C85.3018 28.8174 85.5361 28.5918 85.6885 28.3105V26.6758H84.7393C83.4678 26.6758 82.791 27.1152 82.709 27.9941L82.7002 28.1436C82.7002 28.46 82.8115 28.7207 83.0342 28.9258C83.2568 29.1309 83.5615 29.2334 83.9482 29.2334ZM95.3389 28.3721C95.3389 28.0615 95.1836 27.8184 94.873 27.6426C94.5684 27.4609 94.0762 27.2998 93.3965 27.1592C91.1348 26.6846 90.0039 25.7236 90.0039 24.2764C90.0039 23.4326 90.3525 22.7295 91.0498 22.167C91.7529 21.5986 92.6699 21.3145 93.8008 21.3145C95.0078 21.3145 95.9717 21.5986 96.6924 22.167C97.4189 22.7354 97.7822 23.4736 97.7822 24.3818H95.2422C95.2422 24.0186 95.125 23.7197 94.8906 23.4854C94.6562 23.2451 94.29 23.125 93.792 23.125C93.3643 23.125 93.0332 23.2217 92.7988 23.415C92.5645 23.6084 92.4473 23.8545 92.4473 24.1533C92.4473 24.4346 92.5791 24.6631 92.8428 24.8389C93.1123 25.0088 93.5635 25.1582 94.1963 25.2871C94.8291 25.4102 95.3623 25.5508 95.7959 25.709C97.1377 26.2012 97.8086 27.0537 97.8086 28.2666C97.8086 29.1338 97.4365 29.8369 96.6924 30.376C95.9482 30.9092 94.9873 31.1758 93.8096 31.1758C93.0127 31.1758 92.3037 31.0352 91.6826 30.7539C91.0674 30.4668 90.584 30.0771 90.2324 29.585C89.8809 29.0869 89.7051 28.5508 89.7051 27.9766H92.1133C92.1367 28.4277 92.3037 28.7734 92.6143 29.0137C92.9248 29.2539 93.3408 29.374 93.8623 29.374C94.3486 29.374 94.7148 29.2832 94.9609 29.1016C95.2129 28.9141 95.3389 28.6709 95.3389 28.3721ZM101.931 22.5273C102.604 21.7188 103.451 21.3145 104.471 21.3145C106.533 21.3145 107.579 22.5127 107.608 24.9092V31H105.068V24.9795C105.068 24.4346 104.951 24.0332 104.717 23.7754C104.482 23.5117 104.093 23.3799 103.548 23.3799C102.804 23.3799 102.265 23.667 101.931 24.2412V31H99.3906V17.5H101.931V22.5273ZM112.205 31H109.656V21.4902H112.205V31ZM109.507 19.0293C109.507 18.6484 109.633 18.335 109.885 18.0889C110.143 17.8428 110.491 17.7197 110.931 17.7197C111.364 17.7197 111.71 17.8428 111.968 18.0889C112.226 18.335 112.354 18.6484 112.354 19.0293C112.354 19.416 112.223 19.7324 111.959 19.9785C111.701 20.2246 111.358 20.3477 110.931 20.3477C110.503 20.3477 110.157 20.2246 109.894 19.9785C109.636 19.7324 109.507 19.416 109.507 19.0293ZM113.91 26.1572C113.91 25.2139 114.092 24.373 114.455 23.6348C114.818 22.8965 115.34 22.3252 116.02 21.9209C116.705 21.5166 117.499 21.3145 118.401 21.3145C119.685 21.3145 120.73 21.707 121.539 22.4922C122.354 23.2773 122.808 24.3438 122.901 25.6914L122.919 26.3418C122.919 27.8008 122.512 28.9727 121.697 29.8574C120.883 30.7363 119.79 31.1758 118.419 31.1758C117.048 31.1758 115.952 30.7363 115.132 29.8574C114.317 28.9785 113.91 27.7832 113.91 26.2715V26.1572ZM116.45 26.3418C116.45 27.2441 116.62 27.9355 116.96 28.416C117.3 28.8906 117.786 29.1279 118.419 29.1279C119.034 29.1279 119.515 28.8936 119.86 28.4248C120.206 27.9502 120.379 27.1943 120.379 26.1572C120.379 25.2725 120.206 24.5869 119.86 24.1006C119.515 23.6143 119.028 23.3711 118.401 23.3711C117.78 23.3711 117.3 23.6143 116.96 24.1006C116.62 24.5811 116.45 25.3281 116.45 26.3418ZM126.821 21.4902L126.9 22.5889C127.58 21.7393 128.491 21.3145 129.634 21.3145C130.642 21.3145 131.392 21.6104 131.884 22.2021C132.376 22.7939 132.628 23.6787 132.64 24.8564V31H130.1V24.918C130.1 24.3789 129.982 23.9893 129.748 23.749C129.514 23.5029 129.124 23.3799 128.579 23.3799C127.864 23.3799 127.328 23.6846 126.971 24.2939V31H124.431V21.4902H126.821Z" fill="white"/>
</svg>
