<svg width="400" height="51" viewBox="0 0 400 51" fill="none" xmlns="http://www.w3.org/2000/svg">
<path d="M40.28 25.7002C38.47 30.8902 33.39 36.6302 29.28 40.7002C30.6108 42.2259 32.0405 43.6623 33.56 45.0002C33.8735 45.2806 34.2794 45.4356 34.7 45.4356C35.1206 45.4356 35.5265 45.2806 35.84 45.0002C38.33 42.7902 44.06 37.2802 44.06 33.2302C44.0632 31.7668 43.7228 30.3231 43.0662 29.0153C42.4097 27.7074 41.4554 26.572 40.28 25.7002Z" fill="#D15187"/>
<path d="M40.28 25.6998C38.8895 24.6627 37.2378 24.0328 35.5098 23.8807C33.7817 23.7286 32.0455 24.0603 30.4951 24.8386C28.9448 25.6168 27.6416 26.8111 26.7311 28.2877C25.8207 29.7643 25.3391 31.4651 25.34 33.1998C25.34 35.5098 27.21 38.2998 29.28 40.6798C33.39 36.6298 38.47 30.8898 40.28 25.6998Z" fill="#A445BB"/>
<path d="M23.46 4.5801C21.1589 4.57879 18.8801 5.03106 16.7538 5.91106C14.6276 6.79105 12.6957 8.08152 11.0686 9.70866C9.44142 11.3358 8.15096 13.2677 7.27096 15.3939C6.39096 17.5202 5.93869 19.799 5.94001 22.1001C5.94001 30.2801 18.47 41.6801 22.33 45.0001C22.6425 45.2703 23.0419 45.419 23.455 45.419C23.8681 45.419 24.2675 45.2703 24.58 45.0001C25.64 44.0901 27.35 42.5701 29.28 40.6801C27.21 38.3001 25.34 35.5101 25.34 33.2001C25.3534 30.9092 26.2075 28.703 27.74 27.0001C26.5871 28.1017 25.0546 28.7175 23.46 28.7201C22.0019 28.7402 20.5812 28.2586 19.4359 27.3561C18.2905 26.4535 17.4901 25.1848 17.1687 23.7624C16.8473 22.34 17.0245 20.8504 17.6705 19.5431C18.3166 18.2358 19.3922 17.1901 20.7173 16.5814C22.0424 15.9726 23.5364 15.8377 24.9492 16.1993C26.3619 16.5608 27.6074 17.3968 28.4772 18.5673C29.347 19.7377 29.7881 21.1715 29.7267 22.6284C29.6653 24.0854 29.1051 25.477 28.14 26.5701C29.7284 25.0002 31.8277 24.0528 34.0559 23.9005C36.284 23.7481 38.4927 24.401 40.28 25.7401C40.7263 24.5768 40.9698 23.3457 41 22.1001C41.0013 19.7973 40.5484 17.5168 39.6671 15.3893C38.7859 13.2618 37.4936 11.329 35.8644 9.70158C34.2351 8.07417 32.3008 6.78413 30.1723 5.90531C28.0438 5.02649 25.7628 4.57616 23.46 4.5801Z" fill="#6F2CFF"/>
<path d="M80.7754 20.3389H76.8555V31H74.2188V20.3389H70.3516V18.2031H80.7754V20.3389ZM86.8838 23.8721C86.5381 23.8252 86.2334 23.8018 85.9697 23.8018C85.0088 23.8018 84.3789 24.127 84.0801 24.7773V31H81.54V21.4902H83.9395L84.0098 22.624C84.5195 21.751 85.2256 21.3145 86.1279 21.3145C86.4092 21.3145 86.6729 21.3525 86.9189 21.4287L86.8838 23.8721ZM93.3613 31C93.2441 30.7715 93.1592 30.4873 93.1064 30.1475C92.4912 30.833 91.6914 31.1758 90.707 31.1758C89.7754 31.1758 89.002 30.9062 88.3867 30.3672C87.7773 29.8281 87.4727 29.1484 87.4727 28.3281C87.4727 27.3203 87.8447 26.5469 88.5889 26.0078C89.3389 25.4688 90.4199 25.1963 91.832 25.1904H93.001V24.6455C93.001 24.2061 92.8867 23.8545 92.6582 23.5908C92.4355 23.3271 92.0811 23.1953 91.5947 23.1953C91.167 23.1953 90.8301 23.2979 90.584 23.5029C90.3438 23.708 90.2236 23.9893 90.2236 24.3467H87.6836C87.6836 23.7959 87.8535 23.2861 88.1934 22.8174C88.5332 22.3486 89.0137 21.9824 89.6348 21.7188C90.2559 21.4492 90.9531 21.3145 91.7266 21.3145C92.8984 21.3145 93.8271 21.6104 94.5127 22.2021C95.2041 22.7881 95.5498 23.6143 95.5498 24.6807V28.8027C95.5557 29.7051 95.6816 30.3877 95.9277 30.8506V31H93.3613ZM91.2607 29.2334C91.6357 29.2334 91.9814 29.1514 92.2979 28.9873C92.6143 28.8174 92.8486 28.5918 93.001 28.3105V26.6758H92.0518C90.7803 26.6758 90.1035 27.1152 90.0215 27.9941L90.0127 28.1436C90.0127 28.46 90.124 28.7207 90.3467 28.9258C90.5693 29.1309 90.874 29.2334 91.2607 29.2334ZM100.92 27.8975L102.687 21.4902H105.341L102.133 31H99.707L96.499 21.4902H99.1533L100.92 27.8975ZM110.72 31.1758C109.325 31.1758 108.188 30.748 107.31 29.8926C106.437 29.0371 106 27.8975 106 26.4736V26.2275C106 25.2725 106.185 24.4199 106.554 23.6699C106.923 22.9141 107.444 22.334 108.118 21.9297C108.798 21.5195 109.571 21.3145 110.438 21.3145C111.739 21.3145 112.762 21.7246 113.506 22.5449C114.256 23.3652 114.631 24.5283 114.631 26.0342V27.0713H108.575C108.657 27.6924 108.903 28.1904 109.313 28.5654C109.729 28.9404 110.254 29.1279 110.887 29.1279C111.865 29.1279 112.63 28.7734 113.181 28.0645L114.429 29.4619C114.048 30.001 113.532 30.4229 112.882 30.7275C112.231 31.0264 111.511 31.1758 110.72 31.1758ZM110.43 23.3711C109.926 23.3711 109.516 23.541 109.199 23.8809C108.889 24.2207 108.689 24.707 108.602 25.3398H112.135V25.1377C112.123 24.5752 111.971 24.1416 111.678 23.8369C111.385 23.5264 110.969 23.3711 110.43 23.3711ZM118.762 31H116.213V17.5H118.762V31ZM124.993 27.5547C124.993 26.9629 125.157 26.415 125.485 25.9111C125.819 25.4072 126.429 24.8477 127.313 24.2324C126.933 23.7227 126.634 23.2451 126.417 22.7998C126.2 22.3486 126.092 21.8799 126.092 21.3936C126.092 20.3975 126.405 19.5889 127.032 18.9678C127.665 18.3408 128.515 18.0273 129.581 18.0273C130.536 18.0273 131.318 18.3115 131.928 18.8799C132.543 19.4482 132.851 20.1572 132.851 21.0068C132.851 22.0264 132.335 22.9258 131.304 23.7051L130.319 24.417L132.525 26.9834C132.871 26.3037 133.044 25.5537 133.044 24.7334H135.206C135.206 26.3975 134.822 27.7451 134.055 28.7764L135.971 31H133.088L132.429 30.2441C131.485 30.8652 130.401 31.1758 129.177 31.1758C127.911 31.1758 126.897 30.8447 126.136 30.1826C125.374 29.5146 124.993 28.6387 124.993 27.5547ZM129.3 29.1367C129.909 29.1367 130.486 28.9668 131.031 28.627L128.509 25.709L128.324 25.8408C127.803 26.2861 127.542 26.8105 127.542 27.4141C127.542 27.9238 127.703 28.3398 128.025 28.6621C128.354 28.9785 128.778 29.1367 129.3 29.1367ZM128.368 21.3584C128.368 21.7979 128.626 22.3516 129.142 23.0195L129.818 22.5713C130.164 22.3486 130.401 22.1318 130.53 21.9209C130.665 21.71 130.732 21.458 130.732 21.165C130.732 20.8721 130.624 20.6172 130.407 20.4004C130.19 20.1836 129.912 20.0752 129.572 20.0752C129.209 20.0752 128.916 20.1924 128.693 20.4268C128.477 20.6611 128.368 20.9717 128.368 21.3584ZM144.681 19.1523V21.4902H146.307V23.3535H144.681V28.0996C144.681 28.4512 144.748 28.7031 144.883 28.8555C145.018 29.0078 145.275 29.084 145.656 29.084C145.938 29.084 146.187 29.0635 146.403 29.0225V30.9473C145.905 31.0996 145.393 31.1758 144.865 31.1758C143.084 31.1758 142.176 30.2764 142.141 28.4775V23.3535H140.752V21.4902H142.141V19.1523H144.681ZM147.062 26.1572C147.062 25.2139 147.244 24.373 147.607 23.6348C147.971 22.8965 148.492 22.3252 149.172 21.9209C149.857 21.5166 150.651 21.3145 151.554 21.3145C152.837 21.3145 153.883 21.707 154.691 22.4922C155.506 23.2773 155.96 24.3438 156.054 25.6914L156.071 26.3418C156.071 27.8008 155.664 28.9727 154.85 29.8574C154.035 30.7363 152.942 31.1758 151.571 31.1758C150.2 31.1758 149.104 30.7363 148.284 29.8574C147.47 28.9785 147.062 27.7832 147.062 26.2715V26.1572ZM149.603 26.3418C149.603 27.2441 149.772 27.9355 150.112 28.416C150.452 28.8906 150.938 29.1279 151.571 29.1279C152.187 29.1279 152.667 28.8936 153.013 28.4248C153.358 27.9502 153.531 27.1943 153.531 26.1572C153.531 25.2725 153.358 24.5869 153.013 24.1006C152.667 23.6143 152.181 23.3711 151.554 23.3711C150.933 23.3711 150.452 23.6143 150.112 24.1006C149.772 24.5811 149.603 25.3281 149.603 26.3418ZM163.331 30.0332C162.704 30.7949 161.837 31.1758 160.729 31.1758C159.71 31.1758 158.931 30.8828 158.392 30.2969C157.858 29.7109 157.586 28.8525 157.574 27.7217V21.4902H160.114V27.6338C160.114 28.624 160.565 29.1191 161.468 29.1191C162.329 29.1191 162.921 28.8203 163.243 28.2227V21.4902H165.792V31H163.401L163.331 30.0332ZM173.052 23.8721C172.706 23.8252 172.401 23.8018 172.138 23.8018C171.177 23.8018 170.547 24.127 170.248 24.7773V31H167.708V21.4902H170.107L170.178 22.624C170.688 21.751 171.394 21.3145 172.296 21.3145C172.577 21.3145 172.841 21.3525 173.087 21.4287L173.052 23.8721ZM176.963 31H174.414V21.4902H176.963V31ZM174.265 19.0293C174.265 18.6484 174.391 18.335 174.643 18.0889C174.9 17.8428 175.249 17.7197 175.688 17.7197C176.122 17.7197 176.468 17.8428 176.726 18.0889C176.983 18.335 177.112 18.6484 177.112 19.0293C177.112 19.416 176.98 19.7324 176.717 19.9785C176.459 20.2246 176.116 20.3477 175.688 20.3477C175.261 20.3477 174.915 20.2246 174.651 19.9785C174.394 19.7324 174.265 19.416 174.265 19.0293ZM184.214 28.3721C184.214 28.0615 184.059 27.8184 183.748 27.6426C183.443 27.4609 182.951 27.2998 182.271 27.1592C180.01 26.6846 178.879 25.7236 178.879 24.2764C178.879 23.4326 179.228 22.7295 179.925 22.167C180.628 21.5986 181.545 21.3145 182.676 21.3145C183.883 21.3145 184.847 21.5986 185.567 22.167C186.294 22.7354 186.657 23.4736 186.657 24.3818H184.117C184.117 24.0186 184 23.7197 183.766 23.4854C183.531 23.2451 183.165 23.125 182.667 23.125C182.239 23.125 181.908 23.2217 181.674 23.415C181.439 23.6084 181.322 23.8545 181.322 24.1533C181.322 24.4346 181.454 24.6631 181.718 24.8389C181.987 25.0088 182.438 25.1582 183.071 25.2871C183.704 25.4102 184.237 25.5508 184.671 25.709C186.013 26.2012 186.684 27.0537 186.684 28.2666C186.684 29.1338 186.312 29.8369 185.567 30.376C184.823 30.9092 183.862 31.1758 182.685 31.1758C181.888 31.1758 181.179 31.0352 180.558 30.7539C179.942 30.4668 179.459 30.0771 179.107 29.585C178.756 29.0869 178.58 28.5508 178.58 27.9766H180.988C181.012 28.4277 181.179 28.7734 181.489 29.0137C181.8 29.2539 182.216 29.374 182.737 29.374C183.224 29.374 183.59 29.2832 183.836 29.1016C184.088 28.9141 184.214 28.6709 184.214 28.3721ZM190.709 21.4902L190.788 22.5537C191.462 21.7275 192.373 21.3145 193.521 21.3145C194.746 21.3145 195.587 21.7979 196.044 22.7646C196.712 21.7979 197.664 21.3145 198.9 21.3145C199.932 21.3145 200.699 21.6162 201.203 22.2197C201.707 22.8174 201.959 23.7197 201.959 24.9268V31H199.41V24.9355C199.41 24.3965 199.305 24.0039 199.094 23.7578C198.883 23.5059 198.511 23.3799 197.978 23.3799C197.216 23.3799 196.688 23.7432 196.396 24.4697L196.404 31H193.864V24.9443C193.864 24.3936 193.756 23.9951 193.539 23.749C193.322 23.5029 192.953 23.3799 192.432 23.3799C191.711 23.3799 191.189 23.6787 190.867 24.2764V31H188.327V21.4902H190.709Z" fill="white"/>
</svg>
