<svg width="50" height="24" viewBox="0 0 50 24" fill="none" xmlns="http://www.w3.org/2000/svg">
<path d="M48.88 12.8898H33.1C32.472 11.4509 31.4722 10.2052 30.2033 9.28071C28.9344 8.35626 27.4421 7.78641 25.88 7.62976V1.62977C25.8813 1.51599 25.8601 1.40308 25.8174 1.29759C25.7748 1.19209 25.7117 1.0961 25.6317 1.01518C25.5517 0.934258 25.4564 0.870015 25.3514 0.826172C25.2464 0.782329 25.1338 0.759758 25.02 0.759766C24.9062 0.759758 24.7936 0.782329 24.6886 0.826172C24.5836 0.870015 24.4883 0.934258 24.4083 1.01518C24.3283 1.0961 24.2652 1.19209 24.2226 1.29759C24.1799 1.40308 24.1587 1.51599 24.16 1.62977V7.62976C22.5979 7.78641 21.1056 8.35626 19.8367 9.28071C18.5678 10.2052 17.568 11.4509 16.94 12.8898H1.12C0.889262 12.8898 0.667974 12.9814 0.504817 13.1446C0.34166 13.3077 0.25 13.529 0.25 13.7598V13.9998C0.250152 14.1876 0.310416 14.3705 0.421975 14.5216C0.533533 14.6728 0.690531 14.7843 0.87 14.8398L6.3 16.4798C6.49202 15.8005 6.92438 15.2142 7.51655 14.8301C8.10872 14.4459 8.82033 14.2901 9.51885 14.3917C10.2174 14.4932 10.8552 14.8452 11.3135 15.382C11.7718 15.9188 12.0193 16.604 12.01 17.3098C12.005 17.5919 11.9578 17.8716 11.87 18.1398L16.76 19.6098V19.3998C18.04 22.2098 21.24 23.4998 24.99 23.4998C28.74 23.4998 31.99 22.1998 33.23 19.3798V19.6098L38.11 18.1498C38.0236 17.8778 37.9765 17.595 37.97 17.3098C37.9607 16.604 38.2082 15.9188 38.6665 15.382C39.1248 14.8452 39.7626 14.4932 40.4612 14.3917C41.1597 14.2901 41.8713 14.4459 42.4635 14.8301C43.0556 15.2142 43.488 15.8005 43.68 16.4798L49.11 14.8498C49.2895 14.7943 49.4465 14.6828 49.558 14.5316C49.6696 14.3805 49.7298 14.1976 49.73 14.0098V13.7598C49.7301 13.5325 49.6412 13.3141 49.4823 13.1515C49.3234 12.989 49.1073 12.895 48.88 12.8898Z" fill="#6F2CFF"/>
</svg>
