<svg width="400" height="51" viewBox="0 0 400 51" fill="none" xmlns="http://www.w3.org/2000/svg">
<path d="M25 3.58008C23.787 3.58089 22.5869 3.82909 21.4731 4.30951C20.3593 4.78993 19.3552 5.49247 18.5222 6.37418C17.6891 7.25589 17.0447 8.29824 16.6282 9.4375C16.2117 10.5768 16.032 11.789 16.1 13.0001L16.6 21.4201H33.4L33.9 13.0001C33.968 11.789 33.7883 10.5768 33.3718 9.4375C32.9553 8.29824 32.3109 7.25589 31.4778 6.37418C30.6448 5.49247 29.6407 4.78993 28.5269 4.30951C27.4131 3.82909 26.213 3.58089 25 3.58008V3.58008Z" stroke="#6F2CFF" stroke-width="2.14" stroke-miterlimit="10"/>
<path d="M41.64 46.4202H8.36C8.13423 46.4203 7.91076 46.3749 7.70292 46.2868C7.49508 46.1986 7.30714 46.0695 7.15033 45.9071C6.99352 45.7447 6.87105 45.5523 6.79024 45.3415C6.70943 45.1307 6.67193 44.9058 6.68 44.6802L7.6 21.7602C7.62057 21.3286 7.80661 20.9216 8.11947 20.6236C8.43233 20.3256 8.84795 20.1597 9.28 20.1602H40.72C41.152 20.1597 41.5677 20.3256 41.8805 20.6236C42.1934 20.9216 42.3794 21.3286 42.4 21.7602L43.32 44.6802C43.3281 44.9058 43.2906 45.1307 43.2098 45.3415C43.1289 45.5523 43.0065 45.7447 42.8497 45.9071C42.6928 46.0695 42.5049 46.1986 42.2971 46.2868C42.0892 46.3749 41.8658 46.4203 41.64 46.4202Z" fill="#6F2CFF"/>
<path d="M42.4 21.7602L42.5 24.3602H39.18V28.5602H10.82V24.3602H7.5L7.6 21.7602C7.62057 21.3286 7.80661 20.9216 8.11947 20.6236C8.43233 20.3256 8.84796 20.1597 9.28 20.1602H40.72C41.152 20.1597 41.5677 20.3256 41.8805 20.6236C42.1934 20.9216 42.3794 21.3286 42.4 21.7602Z" fill="#D15187"/>
<path d="M39.19 28.5601H10.82V33.8101H39.19V28.5601Z" fill="#A445BB"/>
<path d="M27.63 33.8099C27.632 34.3305 27.4794 34.84 27.1916 35.2738C26.9039 35.7076 26.4938 36.0463 26.0134 36.2469C25.533 36.4475 25.0039 36.501 24.4931 36.4006C23.9823 36.3003 23.5127 36.0506 23.1439 35.6832C22.7751 35.3158 22.5236 34.8472 22.4213 34.3367C22.319 33.8263 22.3705 33.297 22.5693 32.8158C22.768 32.3347 23.1051 31.9233 23.5378 31.6339C23.9705 31.3444 24.4794 31.1899 25 31.1899C25.6958 31.1899 26.3632 31.4657 26.8562 31.9567C27.3491 32.4478 27.6274 33.1142 27.63 33.8099Z" fill="#D15187"/>
<path d="M73.7793 28.8818H79.3779V31H71.1426V18.2031H73.7793V28.8818ZM86.3037 30.0332C85.6768 30.7949 84.8096 31.1758 83.7021 31.1758C82.6826 31.1758 81.9033 30.8828 81.3643 30.2969C80.8311 29.7109 80.5586 28.8525 80.5469 27.7217V21.4902H83.0869V27.6338C83.0869 28.624 83.5381 29.1191 84.4404 29.1191C85.3018 29.1191 85.8936 28.8203 86.2158 28.2227V21.4902H88.7646V31H86.374L86.3037 30.0332ZM94.3018 24.3291L95.9014 21.4902H98.6172L95.9102 26.1484L98.7314 31H96.0068L94.3105 28.0117L92.623 31H89.8896L92.7109 26.1484L90.0127 21.4902H92.7373L94.3018 24.3291ZM105.534 30.0332C104.907 30.7949 104.04 31.1758 102.933 31.1758C101.913 31.1758 101.134 30.8828 100.595 30.2969C100.062 29.7109 99.7891 28.8525 99.7773 27.7217V21.4902H102.317V27.6338C102.317 28.624 102.769 29.1191 103.671 29.1191C104.532 29.1191 105.124 28.8203 105.446 28.2227V21.4902H107.995V31H105.604L105.534 30.0332ZM115.255 23.8721C114.909 23.8252 114.604 23.8018 114.341 23.8018C113.38 23.8018 112.75 24.127 112.451 24.7773V31H109.911V21.4902H112.311L112.381 22.624C112.891 21.751 113.597 21.3145 114.499 21.3145C114.78 21.3145 115.044 21.3525 115.29 21.4287L115.255 23.8721ZM120.194 27.4053L121.952 21.4902H124.677L120.854 32.4766L120.643 32.9775C120.074 34.2197 119.137 34.8408 117.83 34.8408C117.461 34.8408 117.086 34.7852 116.705 34.6738V32.749L117.092 32.7578C117.572 32.7578 117.93 32.6846 118.164 32.5381C118.404 32.3916 118.592 32.1484 118.727 31.8086L119.025 31.0264L115.694 21.4902H118.428L120.194 27.4053Z" fill="white"/>
</svg>
