<svg width="400" height="51" viewBox="0 0 400 51" fill="none" xmlns="http://www.w3.org/2000/svg">
<path d="M46.57 9.04991L26.05 2.67991C25.7834 2.59643 25.503 2.56644 25.2248 2.59168C24.9466 2.61692 24.6761 2.69688 24.429 2.82698C24.1818 2.95708 23.9627 3.13474 23.7844 3.34976C23.6061 3.56478 23.4721 3.81292 23.39 4.07991L18.54 19.6599L24.97 18.6599C25.5283 18.5737 26.0979 18.7129 26.5536 19.0467C27.0093 19.3805 27.3138 19.8816 27.4 20.4399L29 30.5399L39 33.6399C39.2672 33.7235 39.5483 33.7537 39.8272 33.7285C40.1061 33.7034 40.3773 33.6236 40.6253 33.4935C40.8733 33.3635 41.0932 33.1859 41.2724 32.9707C41.4517 32.7556 41.5868 32.5073 41.67 32.2399L48 11.7199C48.0844 11.4508 48.1143 11.1675 48.0878 10.8867C48.0614 10.6058 47.9792 10.3331 47.846 10.0844C47.7128 9.83578 47.5314 9.6162 47.3123 9.43856C47.0932 9.26092 46.8408 9.12879 46.57 9.04991Z" fill="#D15187"/>
<path d="M17 24.6002L18.53 19.6602L3.73003 22.0002C3.19203 22.1004 2.71289 22.403 2.39111 22.8457C2.06934 23.2883 1.92939 23.8375 2.00003 24.3802L5.23003 45.6202C5.3186 46.1766 5.62404 46.6753 6.07947 47.007C6.53491 47.3388 7.10324 47.4765 7.66003 47.3902L28.9 44.1202C29.4583 44.0339 29.9595 43.7295 30.2933 43.2738C30.6271 42.8181 30.7662 42.2484 30.68 41.6902L29 30.5402L18.41 27.2602C18.1421 27.1791 17.8929 27.0458 17.6768 26.8679C17.4607 26.6901 17.282 26.4712 17.1509 26.2239C17.0198 25.9766 16.939 25.7058 16.9131 25.4271C16.8872 25.1484 16.9167 24.8674 17 24.6002Z" fill="#6F2CFF"/>
<path d="M25 18.67L18.57 19.67L17 24.6C16.9165 24.8666 16.8865 25.147 16.9117 25.4252C16.937 25.7034 17.017 25.9739 17.147 26.2211C17.2771 26.4682 17.4548 26.6873 17.6698 26.8656C17.8849 27.0439 18.133 27.1779 18.4 27.26L29 30.54L27.4 20.45C27.3135 19.8978 27.0135 19.4016 26.5645 19.0686C26.1155 18.7356 25.5536 18.5925 25 18.67Z" fill="#A445BB"/>
<path d="M32.48 20.4899C33.6674 20.4899 34.63 19.5274 34.63 18.3399C34.63 17.1525 33.6674 16.1899 32.48 16.1899C31.2926 16.1899 30.33 17.1525 30.33 18.3399C30.33 19.5274 31.2926 20.4899 32.48 20.4899Z" fill="white"/>
<path d="M28.24 12.4401C29.4274 12.4401 30.39 11.4775 30.39 10.2901C30.39 9.10272 29.4274 8.14014 28.24 8.14014C27.0526 8.14014 26.09 9.10272 26.09 10.2901C26.09 11.4775 27.0526 12.4401 28.24 12.4401Z" fill="white"/>
<path d="M40.53 16.26C41.7174 16.26 42.68 15.2974 42.68 14.11C42.68 12.9225 41.7174 11.96 40.53 11.96C39.3426 11.96 38.38 12.9225 38.38 14.11C38.38 15.2974 39.3426 16.26 40.53 16.26Z" fill="white"/>
<path d="M24.42 24.7302C25.6074 24.7302 26.57 23.7676 26.57 22.5802C26.57 21.3928 25.6074 20.4302 24.42 20.4302C23.2326 20.4302 22.27 21.3928 22.27 22.5802C22.27 23.7676 23.2326 24.7302 24.42 24.7302Z" fill="white"/>
<path d="M36.71 28.55C37.8974 28.55 38.86 27.5874 38.86 26.4C38.86 25.2126 37.8974 24.25 36.71 24.25C35.5226 24.25 34.56 25.2126 34.56 26.4C34.56 27.5874 35.5226 28.55 36.71 28.55Z" fill="white"/>
<path d="M16.39 35.3601C17.5774 35.3601 18.54 34.3975 18.54 33.2101C18.54 32.0226 17.5774 31.0601 16.39 31.0601C15.2026 31.0601 14.24 32.0226 14.24 33.2101C14.24 34.3975 15.2026 35.3601 16.39 35.3601Z" fill="white"/>
<path d="M9.04001 29.9802C10.2274 29.9802 11.19 29.0176 11.19 27.8302C11.19 26.6428 10.2274 25.6802 9.04001 25.6802C7.8526 25.6802 6.89001 26.6428 6.89001 27.8302C6.89001 29.0176 7.8526 29.9802 9.04001 29.9802Z" fill="white"/>
<path d="M23.73 40.7302C24.9174 40.7302 25.88 39.7676 25.88 38.5802C25.88 37.3928 24.9174 36.4302 23.73 36.4302C22.5426 36.4302 21.58 37.3928 21.58 38.5802C21.58 39.7676 22.5426 40.7302 23.73 40.7302Z" fill="white"/>
<path d="M81.6543 24.8916C81.6543 26.1514 81.4316 27.2559 80.9863 28.2051C80.541 29.1543 79.9023 29.8867 79.0703 30.4023C78.2441 30.918 77.2949 31.1758 76.2227 31.1758C75.1621 31.1758 74.2158 30.9209 73.3838 30.4111C72.5518 29.9014 71.9072 29.1748 71.4502 28.2314C70.9932 27.2822 70.7617 26.1924 70.7559 24.9619V24.3291C70.7559 23.0693 70.9814 21.9619 71.4326 21.0068C71.8896 20.0459 72.5312 19.3105 73.3574 18.8008C74.1895 18.2852 75.1387 18.0273 76.2051 18.0273C77.2715 18.0273 78.2178 18.2852 79.0439 18.8008C79.876 19.3105 80.5176 20.0459 80.9688 21.0068C81.4258 21.9619 81.6543 23.0664 81.6543 24.3203V24.8916ZM78.9824 24.3115C78.9824 22.9697 78.7422 21.9502 78.2617 21.2529C77.7812 20.5557 77.0957 20.207 76.2051 20.207C75.3203 20.207 74.6377 20.5527 74.1572 21.2441C73.6768 21.9297 73.4336 22.9375 73.4277 24.2676V24.8916C73.4277 26.1982 73.668 27.2119 74.1484 27.9326C74.6289 28.6533 75.3203 29.0137 76.2227 29.0137C77.1074 29.0137 77.7871 28.668 78.2617 27.9766C78.7363 27.2793 78.9766 26.2656 78.9824 24.9355V24.3115ZM85.7412 21.4902L85.8203 22.5889C86.5 21.7393 87.4111 21.3145 88.5537 21.3145C89.5615 21.3145 90.3115 21.6104 90.8037 22.2021C91.2959 22.7939 91.5479 23.6787 91.5596 24.8564V31H89.0195V24.918C89.0195 24.3789 88.9023 23.9893 88.668 23.749C88.4336 23.5029 88.0439 23.3799 87.499 23.3799C86.7842 23.3799 86.248 23.6846 85.8906 24.2939V31H83.3506V21.4902H85.7412ZM96.1738 31H93.625V17.5H96.1738V31ZM100.955 31H98.4062V21.4902H100.955V31ZM98.2568 19.0293C98.2568 18.6484 98.3828 18.335 98.6348 18.0889C98.8926 17.8428 99.2412 17.7197 99.6807 17.7197C100.114 17.7197 100.46 17.8428 100.718 18.0889C100.976 18.335 101.104 18.6484 101.104 19.0293C101.104 19.416 100.973 19.7324 100.709 19.9785C100.451 20.2246 100.108 20.3477 99.6807 20.3477C99.2529 20.3477 98.9072 20.2246 98.6436 19.9785C98.3857 19.7324 98.2568 19.416 98.2568 19.0293ZM105.394 21.4902L105.473 22.5889C106.152 21.7393 107.063 21.3145 108.206 21.3145C109.214 21.3145 109.964 21.6104 110.456 22.2021C110.948 22.7939 111.2 23.6787 111.212 24.8564V31H108.672V24.918C108.672 24.3789 108.555 23.9893 108.32 23.749C108.086 23.5029 107.696 23.3799 107.151 23.3799C106.437 23.3799 105.9 23.6846 105.543 24.2939V31H103.003V21.4902H105.394ZM117.522 31.1758C116.128 31.1758 114.991 30.748 114.112 29.8926C113.239 29.0371 112.803 27.8975 112.803 26.4736V26.2275C112.803 25.2725 112.987 24.4199 113.356 23.6699C113.726 22.9141 114.247 22.334 114.921 21.9297C115.601 21.5195 116.374 21.3145 117.241 21.3145C118.542 21.3145 119.564 21.7246 120.309 22.5449C121.059 23.3652 121.434 24.5283 121.434 26.0342V27.0713H115.378C115.46 27.6924 115.706 28.1904 116.116 28.5654C116.532 28.9404 117.057 29.1279 117.689 29.1279C118.668 29.1279 119.433 28.7734 119.983 28.0645L121.231 29.4619C120.851 30.001 120.335 30.4229 119.685 30.7275C119.034 31.0264 118.313 31.1758 117.522 31.1758ZM117.232 23.3711C116.729 23.3711 116.318 23.541 116.002 23.8809C115.691 24.2207 115.492 24.707 115.404 25.3398H118.938V25.1377C118.926 24.5752 118.773 24.1416 118.48 23.8369C118.188 23.5264 117.771 23.3711 117.232 23.3711ZM135.936 26.333C135.936 27.8564 135.61 29.0459 134.96 29.9014C134.31 30.751 133.401 31.1758 132.235 31.1758C131.204 31.1758 130.381 30.7803 129.766 29.9893L129.651 31H127.366V17.5H129.906V22.3428C130.492 21.6572 131.263 21.3145 132.218 21.3145C133.378 21.3145 134.286 21.7422 134.942 22.5977C135.604 23.4473 135.936 24.6455 135.936 26.1924V26.333ZM133.396 26.1484C133.396 25.1875 133.243 24.4873 132.938 24.0479C132.634 23.6025 132.18 23.3799 131.576 23.3799C130.768 23.3799 130.211 23.7109 129.906 24.373V28.126C130.217 28.7939 130.779 29.1279 131.594 29.1279C132.414 29.1279 132.953 28.7236 133.211 27.915C133.334 27.5283 133.396 26.9395 133.396 26.1484ZM141.886 31.1758C140.491 31.1758 139.354 30.748 138.476 29.8926C137.603 29.0371 137.166 27.8975 137.166 26.4736V26.2275C137.166 25.2725 137.351 24.4199 137.72 23.6699C138.089 22.9141 138.61 22.334 139.284 21.9297C139.964 21.5195 140.737 21.3145 141.604 21.3145C142.905 21.3145 143.928 21.7246 144.672 22.5449C145.422 23.3652 145.797 24.5283 145.797 26.0342V27.0713H139.741C139.823 27.6924 140.069 28.1904 140.479 28.5654C140.896 28.9404 141.42 29.1279 142.053 29.1279C143.031 29.1279 143.796 28.7734 144.347 28.0645L145.595 29.4619C145.214 30.001 144.698 30.4229 144.048 30.7275C143.397 31.0264 142.677 31.1758 141.886 31.1758ZM141.596 23.3711C141.092 23.3711 140.682 23.541 140.365 23.8809C140.055 24.2207 139.855 24.707 139.768 25.3398H143.301V25.1377C143.289 24.5752 143.137 24.1416 142.844 23.8369C142.551 23.5264 142.135 23.3711 141.596 23.3711ZM150.288 19.1523V21.4902H151.914V23.3535H150.288V28.0996C150.288 28.4512 150.355 28.7031 150.49 28.8555C150.625 29.0078 150.883 29.084 151.264 29.084C151.545 29.084 151.794 29.0635 152.011 29.0225V30.9473C151.513 31.0996 151 31.1758 150.473 31.1758C148.691 31.1758 147.783 30.2764 147.748 28.4775V23.3535H146.359V21.4902H147.748V19.1523H150.288ZM156.37 19.1523V21.4902H157.996V23.3535H156.37V28.0996C156.37 28.4512 156.438 28.7031 156.572 28.8555C156.707 29.0078 156.965 29.084 157.346 29.084C157.627 29.084 157.876 29.0635 158.093 29.0225V30.9473C157.595 31.0996 157.082 31.1758 156.555 31.1758C154.773 31.1758 153.865 30.2764 153.83 28.4775V23.3535H152.441V21.4902H153.83V19.1523H156.37ZM162.092 31H159.543V21.4902H162.092V31ZM159.394 19.0293C159.394 18.6484 159.52 18.335 159.771 18.0889C160.029 17.8428 160.378 17.7197 160.817 17.7197C161.251 17.7197 161.597 17.8428 161.854 18.0889C162.112 18.335 162.241 18.6484 162.241 19.0293C162.241 19.416 162.109 19.7324 161.846 19.9785C161.588 20.2246 161.245 20.3477 160.817 20.3477C160.39 20.3477 160.044 20.2246 159.78 19.9785C159.522 19.7324 159.394 19.416 159.394 19.0293ZM166.53 21.4902L166.609 22.5889C167.289 21.7393 168.2 21.3145 169.343 21.3145C170.351 21.3145 171.101 21.6104 171.593 22.2021C172.085 22.7939 172.337 23.6787 172.349 24.8564V31H169.809V24.918C169.809 24.3789 169.691 23.9893 169.457 23.749C169.223 23.5029 168.833 23.3799 168.288 23.3799C167.573 23.3799 167.037 23.6846 166.68 24.2939V31H164.14V21.4902H166.53ZM173.913 26.1748C173.913 24.7158 174.259 23.541 174.95 22.6504C175.647 21.7598 176.585 21.3145 177.763 21.3145C178.806 21.3145 179.617 21.6719 180.197 22.3867L180.303 21.4902H182.605V30.6836C182.605 31.5156 182.415 32.2393 182.034 32.8545C181.659 33.4697 181.129 33.9385 180.443 34.2607C179.758 34.583 178.955 34.7441 178.035 34.7441C177.338 34.7441 176.658 34.6035 175.996 34.3223C175.334 34.0469 174.833 33.6895 174.493 33.25L175.618 31.7031C176.251 32.4121 177.019 32.7666 177.921 32.7666C178.595 32.7666 179.119 32.585 179.494 32.2217C179.869 31.8643 180.057 31.3545 180.057 30.6924V30.1826C179.471 30.8447 178.7 31.1758 177.745 31.1758C176.603 31.1758 175.677 30.7305 174.968 29.8398C174.265 28.9434 173.913 27.7568 173.913 26.2803V26.1748ZM176.453 26.3594C176.453 27.2207 176.626 27.8975 176.972 28.3896C177.317 28.876 177.792 29.1191 178.396 29.1191C179.169 29.1191 179.723 28.8291 180.057 28.249V24.25C179.717 23.6699 179.169 23.3799 178.413 23.3799C177.804 23.3799 177.323 23.6289 176.972 24.127C176.626 24.625 176.453 25.3691 176.453 26.3594Z" fill="white"/>
</svg>
